<svg xmlns="http://www.w3.org/2000/svg" viewBox="0 0 512 512">
  <defs>
    <linearGradient id="grad1" x1="0%" y1="0%" x2="100%" y2="100%">
      <stop offset="0%" style="stop-color:#6366f1;stop-opacity:1" />
      <stop offset="100%" style="stop-color:#8b5cf6;stop-opacity:1" />
    </linearGradient>
  </defs>
  <circle cx="256" cy="256" r="256" fill="url(#grad1)"/>
  <path d="M373.9 133.5C360.5 83.3 325.8 40.5 281.4 15.3 280.3 14.7 279 16.5 279.8 17.5 291 31.4 298.6 48.2 301.6 66.5 302.2 70.1 298.5 72.3 295.5 70.5 274.6 57.8 250.7 51.2 226 51.2 147.2 51.2 83.2 115.2 83.2 194 83.2 225.1 93.3 254.1 110.8 278.4 114.3 283.3 113.8 290 109.8 294.5 98.3 307.2 88 321.4 79.5 336.6 78.2 338.9 79.3 341.2 81.3 342.6 114.7 365 137 387.2 159.2 420.7 160.6 422.8 162.7 423.8 165 422.2 180.2 413.6 194.5 403.4 207.2 391.8 211.7 387.8 218.4 387.3 223.3 390.8 247.6 408.3 276.6 418.4 307.6 418.4 386.4 418.4 450.4 354.4 450.4 275.6 450.4 250.9 443.8 227 431.1 206 429.3 203.1 431.5 199.3 435.1 199.9 453.4 202.9 470.2 210.6 484.1 221.7 485.1 222.9 486.9 221.3 486.3 219.8 461.1 175.4 418.3 140.7 368.1 127.3 365.1 126.5 363.3 130.4 364.5 133 367.3 139.1 369.8 145.4 371.8 151.7 372.6 154.2 376.5 152.1 376 149.3 375.6 144 374.9 138.7 373.9 133.5Z" fill="white"/>
</svg>
